<svg width="16" height="14" viewBox="0 0 16 14" xmlns="http://www.w3.org/2000/svg">
  <!-- Button background -->
  <rect x="0" y="0" width="16" height="14" fill="#c0c0c0"/>
  
  <!-- 3D button effect - outer border -->
  <rect x="0" y="0" width="16" height="1" fill="#ffffff"/>
  <rect x="0" y="0" width="1" height="14" fill="#ffffff"/>
  <rect x="15" y="0" width="1" height="14" fill="#000000"/>
  <rect x="0" y="13" width="16" height="1" fill="#000000"/>
  
  <!-- 3D button effect - inner border -->
  <rect x="1" y="1" width="14" height="1" fill="#dfdfdf"/>
  <rect x="1" y="1" width="1" height="12" fill="#dfdfdf"/>
  <rect x="14" y="1" width="1" height="12" fill="#808080"/>
  <rect x="1" y="12" width="14" height="1" fill="#808080"/>
  
  <!-- X symbol - clean diagonal lines -->
  <rect x="5" y="4" width="2" height="2" fill="#000000"/>
  <rect x="6" y="5" width="2" height="2" fill="#000000"/>
  <rect x="7" y="6" width="2" height="2" fill="#000000"/>
  <rect x="8" y="7" width="2" height="2" fill="#000000"/>
  <rect x="9" y="8" width="2" height="2" fill="#000000"/>
  
  <rect x="9" y="4" width="2" height="2" fill="#000000"/>
  <rect x="8" y="5" width="2" height="2" fill="#000000"/>
  <rect x="7" y="6" width="2" height="2" fill="#000000"/>
  <rect x="6" y="7" width="2" height="2" fill="#000000"/>
  <rect x="5" y="8" width="2" height="2" fill="#000000"/>
</svg> 